<svg width="12" height="14" viewBox="0 0 12 14" fill="none" xmlns="http://www.w3.org/2000/svg">
<path d="M2.4 13C1.07452 13 0 11.9255 0 10.6L0 2.4C0 1.07452 1.07452 -1.19209e-07 2.4 -1.19209e-07C3.72548 -1.19209e-07 4.8 1.07452 4.8 2.4V10.6C4.8 11.9255 3.72548 13 2.4 13Z" fill="#171717"/>
<path d="M11.6 2.67651C11.6 4.15469 10.3464 5.35298 8.8 5.35298C7.2536 5.35298 6 4.15469 6 2.67651C6 1.19834 7.2536 4.31538e-05 8.8 4.31538e-05C10.3464 4.31538e-05 11.6 1.19834 11.6 2.67651Z" fill="#171717"/>
<ellipse cx="8.8" cy="10.353" rx="2.8" ry="2.67647" fill="#171717"/>
</svg>
